<?xml version="1.0"?>
<svg xmlns="http://www.w3.org/2000/svg" xmlns:xlink="http://www.w3.org/1999/xlink" xmlns:svgjs="http://svgjs.com/svgjs" version="1.1" width="512" height="512" x="0" y="0" viewBox="0 0 56 56" style="enable-background:new 0 0 512 512" xml:space="preserve" class=""><g><g xmlns="http://www.w3.org/2000/svg" id="XMLID_3645_"><path id="XMLID_10_" d="m49.525 50.918-21.523-16.107-21.528 16.107-1.198-1.602 21.523-16.107c.708-.527 1.694-.528 2.401 0l21.524 16.107z" fill="#8fa29f" data-original="#000000" class=""/><path id="XMLID_7_" d="m50.125 51.117h-44.25c-.552 0-1-.447-1-1v-28.231c0-.321.154-.622.414-.81l22.125-16.004c.35-.253.822-.253 1.172 0l22.125 16.004c.26.188.414.489.414.81v28.231c0 .553-.447 1-1 1zm-43.25-2h42.25v-26.72l-21.125-15.28-21.125 15.28z" fill="#8fa29f" data-original="#000000" class=""/><path id="XMLID_6_" d="m21.804 34.808c-.208 0-.418-.064-.598-.199l-15.495-11.596c-.442-.331-.532-.958-.202-1.4.331-.443.958-.532 1.4-.202l15.495 11.596c.442.331.532.958.202 1.4-.197.262-.497.401-.802.401z" fill="#8fa29f" data-original="#000000" class=""/><path id="XMLID_5_" d="m39.781 17.208h2.001v23.34h-2.001z" transform="matrix(.599 .801 -.801 .599 39.454 -21.075)" fill="#8fa29f" data-original="#000000" class=""/><path id="XMLID_4_" d="m13.779 28.297c-.552 0-1-.448-1-1v-7.047c0-.552.448-1 1-1h28.439c.552 0 1 .447 1 .999l.002 2.604c0 .553-.447 1-.999 1.001h-.001c-.552 0-1-.447-1-.999v-1.605h-26.44v6.047c-.001.552-.448 1-1.001 1z" fill="#8fa29f" data-original="#000000" class=""/><path id="XMLID_3_" d="m37.718 26.843h-19.436c-.552 0-1-.448-1-1s.448-1 1-1h19.436c.553 0 1 .448 1 1s-.447 1-1 1z" fill="#8fa29f" data-original="#000000" class=""/><path id="XMLID_2_" d="m32.718 31.405h-9.436c-.552 0-1-.447-1-1s.448-1 1-1h9.436c.553 0 1 .447 1 1s-.447 1-1 1z" fill="#8fa29f" data-original="#000000" class=""/></g></g></svg>
