<?xml version="1.0"?>
<svg xmlns="http://www.w3.org/2000/svg" xmlns:xlink="http://www.w3.org/1999/xlink" xmlns:svgjs="http://svgjs.com/svgjs" version="1.1" width="512" height="512" x="0" y="0" viewBox="0 0 60 60" style="enable-background:new 0 0 512 512" xml:space="preserve"><g><path xmlns="http://www.w3.org/2000/svg" d="M30,9.329C28.056,7.145,22.76,2,16,2,5.607,2,0,10.289,0,18.088,0,38.39,23.733,54.53,28.491,57.56a2.824,2.824,0,0,0,3.018,0C36.267,54.53,60,38.39,60,18.088,60,10.289,54.393,2,44,2,37.24,2,31.944,7.145,30,9.329Zm28,8.759c0,19.257-22.962,34.853-27.565,37.784a.806.806,0,0,1-.87,0C24.962,52.941,2,37.345,2,18.088,2,11.259,6.906,4,16,4c7.4,0,13.147,7.417,13.2,7.492a1.038,1.038,0,0,0,1.59,0C30.853,11.417,36.6,4,44,4,53.094,4,58,11.259,58,18.088Z" fill="#df9025" data-original="#000000"/><path xmlns="http://www.w3.org/2000/svg" d="M44,27a3,3,0,0,0-3-3H39a3,3,0,0,0-3,3V38H34V30a3,3,0,0,0-3-3H29a3,3,0,0,0-3,3v8H24V33a3,3,0,0,0-3-3H19a3,3,0,0,0-3,3v5H15a1,1,0,0,0,0,2H45a1,1,0,0,0,0-2H44ZM22,38H18V33a1,1,0,0,1,1-1h2a1,1,0,0,1,1,1Zm10,0H28V30a1,1,0,0,1,1-1h2a1,1,0,0,1,1,1Zm10,0H38V27a1,1,0,0,1,1-1h2a1,1,0,0,1,1,1Z" fill="#df9025" data-original="#000000"/><path xmlns="http://www.w3.org/2000/svg" d="M43.492,14.306l-3.873-1a1,1,0,1,0-.5,1.935l1.366.353-22.9,10.5a1,1,0,0,0,.834,1.818L41.7,17.236l-.429,1.66a1,1,0,0,0,.718,1.218.945.945,0,0,0,.251.032,1,1,0,0,0,.967-.75l1-3.873A1,1,0,0,0,43.492,14.306Z" fill="#df9025" data-original="#000000"/></g></svg>
