<?xml version="1.0"?>
<svg xmlns="http://www.w3.org/2000/svg" xmlns:xlink="http://www.w3.org/1999/xlink" xmlns:svgjs="http://svgjs.com/svgjs" version="1.1" width="512" height="512" x="0" y="0" viewBox="0 0 512 512" style="enable-background:new 0 0 512 512" xml:space="preserve" class=""><g><g xmlns="http://www.w3.org/2000/svg"><path d="m292.874 171.299c-3.375-2.403-8.058-1.615-10.46 1.759l-26.208 36.803-18.816-24.281c-2.538-3.274-7.249-3.871-10.522-1.334-3.274 2.537-3.872 7.249-1.334 10.522l24.999 32.259c1.422 1.835 3.612 2.906 5.928 2.906.051 0 .102 0 .152-.001 2.372-.048 4.582-1.216 5.958-3.148l32.062-45.025c2.402-3.375 1.615-8.058-1.759-10.46z" fill="#df9025" data-original="#000000"/><path d="m318.677 262.638c16.764-16.778 25.995-39.053 25.995-62.72s-9.233-45.941-25.997-62.719c-16.766-16.779-39.024-26.02-62.676-26.02-23.651 0-45.91 9.242-62.675 26.021-16.764 16.778-25.995 39.053-25.995 62.72s9.233 45.941 25.997 62.719c16.766 16.779 39.025 26.02 62.676 26.019s45.909-9.24 62.675-26.02zm-114.741-10.6c-13.934-13.945-21.607-32.454-21.608-52.117s7.672-38.172 21.606-52.118c13.932-13.944 32.422-21.623 52.064-21.624 19.642 0 38.132 7.678 52.064 21.622 13.934 13.945 21.607 32.454 21.608 52.117s-7.672 38.172-21.606 52.118c-13.932 13.944-32.421 21.623-52.064 21.624-19.641 0-38.131-7.678-52.064-21.622z" fill="#df9025" data-original="#000000"/><path d="m458.944 337.373c-2.424-7.442-9.043-12.251-16.862-12.251h-40.607c-1.198 0-2.255-.773-2.627-1.916l-7.03-21.665c14.711-10.873 21.855-29.541 17.558-47.414-1.763-7.383-.258-12.777 5.039-18.044 18.522-18.45 19.25-48.086 1.611-66.075-5.774-5.865-7.35-11.504-5.27-18.848 3.345-11.772 1.731-24.17-4.543-34.911-6.092-10.427-15.887-18.176-27.567-21.815-6.917-2.169-10.523-6.068-12.062-13.049-2.589-11.659-9.648-21.617-19.879-28.038-10.567-6.633-23.653-8.782-35.899-5.898-7.766 1.826-13.403.103-18.852-5.767-8.911-9.582-21.436-15.118-34.361-15.187-12.566-.075-24.144 4.857-32.709 13.87-6.048 6.368-12.03 8.122-20.001 5.868-12.002-3.395-24.492-1.853-35.172 4.342-10.856 6.297-18.537 16.605-21.63 29.037-1.809 7.326-5.677 11.277-12.937 13.213-24.628 6.588-39.315 32.522-32.737 57.825 1.951 7.446.19 13.157-5.886 19.096-8.698 8.5-13.44 19.97-13.354 32.297.092 12.958 5.613 25.585 15.16 34.655 5.541 5.243 7.195 10.683 5.528 18.207-3.899 17.798 2.663 36.376 16.131 47.241l-6.832 21.053c-.374 1.15-1.431 1.923-2.629 1.923h-40.607c-7.818 0-14.437 4.809-16.861 12.251-2.432 7.463.095 15.271 6.44 19.896l32.828 23.887c.977.71 1.384 1.949 1.006 3.103l-12.546 38.69c-2.417 7.46.121 15.256 6.463 19.862 3.165 2.298 6.792 3.447 10.421 3.447 3.63 0 7.262-1.15 10.433-3.452l32.865-23.921c.958-.701 2.245-.702 3.221.013l27.601 20.082c3.35 2.437 8.041 1.697 10.478-1.652s1.697-8.04-1.652-10.477l-27.584-20.069c-6.257-4.579-14.664-4.58-20.905-.012l-32.843 23.904c-1.331.966-2.486.534-3.221 0-.608-.441-1.547-1.432-1.007-3.099l12.54-38.668c2.402-7.34-.188-15.33-6.444-19.88l-32.821-23.882c-1.426-1.039-1.244-2.404-1.01-3.125.282-.865.962-1.897 2.6-1.897h40.607c7.712 0 14.501-4.935 16.895-12.286l12.547-38.669c.509-1.569 1.696-1.899 2.602-1.9h.003c.75 0 2.084.25 2.624 1.904l12.537 38.637c2.358 7.366 9.142 12.314 16.88 12.314h34.116c4.142 0 7.5-3.358 7.5-7.5s-3.358-7.5-7.5-7.5h-34.116c-1.19 0-2.233-.759-2.604-1.916l-12.55-38.677c-2.432-7.451-9.058-12.263-16.887-12.263-.007 0-.014 0-.021 0-7.826.009-14.442 4.828-16.854 12.275l-.562 1.73c-6.19-7.476-8.861-17.972-6.633-28.139 2.794-12.613-.526-23.49-9.857-32.32-6.598-6.268-10.418-14.97-10.48-23.875-.058-8.215 3.08-15.838 8.837-21.463 9.89-9.666 13.226-20.979 9.917-33.611-4.508-17.341 5.405-35.082 22.094-39.546 12.555-3.348 20.504-11.459 23.625-24.096 2.101-8.443 7.285-15.429 14.598-19.671 7.136-4.139 15.504-5.163 23.564-2.883 13.332 3.77 25.094.415 34.957-9.97 5.682-5.979 13.407-9.246 21.753-9.203 8.804.048 17.354 3.839 23.454 10.399 9.092 9.793 20.286 13.21 33.275 10.157 8.371-1.972 17.297-.514 24.49 4.001 6.806 4.271 11.497 10.872 13.206 18.573 2.695 12.228 10.171 20.344 22.233 24.126 16.738 5.215 26.678 22.4 22.155 38.316-3.547 12.528-.515 23.788 9.001 33.454 11.883 12.118 11.211 32.276-1.493 44.931-8.969 8.919-12.013 19.74-9.044 32.172 2.521 10.482-.641 21.048-7.978 28.485l-.508-1.564c-2.413-7.45-9.029-12.27-16.855-12.278-.007 0-.014 0-.021 0-7.828 0-14.455 4.812-16.891 12.275l-12.555 38.693c-.362 1.129-1.404 1.888-2.595 1.888h-34.116c-4.142 0-7.5 3.358-7.5 7.5s3.358 7.5 7.5 7.5h34.116c7.738 0 14.522-4.949 16.871-12.286l12.542-38.653c.545-1.669 1.874-1.953 2.631-1.916.906.001 2.093.332 2.603 1.904l3.683 11.351c.015.051.033.101.049.151l8.816 27.17c2.392 7.345 9.18 12.279 16.893 12.279h40.607c1.638 0 2.317 1.032 2.6 1.897.235.721.416 2.086-1.004 3.121l-32.825 23.885c-6.258 4.551-8.849 12.541-6.453 19.861l12.545 38.685c.541 1.67-.399 2.66-1.007 3.102-.734.534-1.89.966-3.213.005l-32.833-23.897c-6.257-4.58-14.665-4.579-20.905-.013l-27.601 20.082c-3.35 2.437-4.089 7.127-1.652 10.477s7.128 4.089 10.477 1.652l27.619-20.094c.958-.702 2.245-.701 3.219.012l32.857 23.914c3.166 2.299 6.794 3.448 10.423 3.448s7.257-1.149 10.423-3.448c6.343-4.605 8.88-12.402 6.463-19.864l-12.552-38.708c-.371-1.134.036-2.373 1.014-3.084l32.832-23.889c6.34-4.623 8.867-12.431 6.436-19.894z" fill="#df9025" data-original="#000000"/><path d="m309.009 418.841c-.495-1.528.042-3.188 1.337-4.13l35.791-26.044c6.667-4.852 9.326-13.056 6.773-20.902-2.549-7.837-9.518-12.901-17.752-12.901h-44.24c-1.593 0-2.996-1.023-3.489-2.545l-13.671-42.14c-2.546-7.847-9.516-12.917-17.758-12.917s-15.212 5.07-17.758 12.917l-13.671 42.14c-.493 1.522-1.896 2.545-3.489 2.545h-44.24c-8.235 0-15.203 5.064-17.752 12.901-2.553 7.846.106 16.05 6.774 20.902l35.791 26.044c1.295.942 1.832 2.602 1.337 4.13l-13.671 42.14c-2.547 7.852.122 16.057 6.8 20.902 6.666 4.837 15.276 4.831 21.937-.016l35.791-26.044c1.288-.937 3.019-.937 4.306 0l35.79 26.044c3.334 2.426 7.156 3.639 10.979 3.639 3.814 0 7.629-1.208 10.958-3.623 6.678-4.846 9.347-13.05 6.8-20.902zm-1.939 50.901c-.646.469-2.36 1.408-4.301-.003l-35.791-26.044c-6.566-4.778-15.391-4.778-21.957 0l-35.791 26.044c-1.94 1.412-3.654.473-4.301.003-.653-.474-2.09-1.825-1.342-4.133l13.671-42.14c2.505-7.72-.22-16.114-6.779-20.887l-35.791-26.044c-1.956-1.423-1.586-3.364-1.336-4.133.249-.764 1.086-2.542 3.489-2.542h44.24c8.115 0 15.251-5.191 17.758-12.916l13.671-42.14c.745-2.297 2.688-2.544 3.489-2.545.801 0 2.745.248 3.49 2.545l13.67 42.14c2.506 7.726 9.643 12.917 17.758 12.917h44.24c2.402 0 3.24 1.777 3.489 2.542.25.769.62 2.709-1.336 4.133l-35.791 26.044c-6.559 4.773-9.284 13.167-6.779 20.887l13.671 42.14c.749 2.307-.688 3.658-1.341 4.132z" fill="#df9025" data-original="#000000"/></g></g></svg>
